# xmcd
#
# Track frame offsets:
#	150
#	19438
#	46061
#	71341
#	96497
#	114554
#	134669
#	156694
#	175945
#	185121
#	201489
#	222277
#	246506
#	275757
#	301149
#	316019
#
# Disc length: 4340 seconds
#
# Revision: 1
# Processed by: cddbd v1.4PL0 Copyright (c) Steve Scherf et al.
# Submitted via: EasyCDDAExtractor 5.1.0
#
DISCID=fe10f210
DTITLE=Barry White - MTV History
DYEAR=2002
DGENRE=blues
TTITLE0=Never, never gonna give ya up
TTITLE1=Practice what you preach
TTITLE2=Staying power
TTITLE3=Put me in your mix
TTITLE4=Ooh... Ahhh...
TTITLE5=Can't get enough of your love, baby
TTITLE6=Nobody music
TTITLE7=Love serenade
TTITLE8=You're my high
TTITLE9=I've got so much to give
TTITLE10=Love is the icon
TTITLE11=Didn't we make it happen baby
TTITLE12=Love will find us
TTITLE13=Which way is up
TTITLE14=Oh, what night for dancing
TTITLE15=Tell me who do you love
EXTD=
EXTT0=
EXTT1=
EXTT2=
EXTT3=
EXTT4=
EXTT5=
EXTT6=
EXTT7=
EXTT8=
EXTT9=
EXTT10=
EXTT11=
EXTT12=
EXTT13=
EXTT14=
EXTT15=
PLAYORDER=
